<?xml version="1.0" standalone="no"?>
<!DOCTYPE svg PUBLIC "-//W3C//DTD SVG 20010904//EN"
 "http://www.w3.org/TR/2001/REC-SVG-20010904/DTD/svg10.dtd">
<svg version="1.0" xmlns="http://www.w3.org/2000/svg"
 width="512.000000pt" height="512.000000pt" viewBox="0 0 512.000000 512.000000"
 preserveAspectRatio="xMidYMid meet">

<g transform="translate(0.000000,512.000000) scale(0.100000,-0.100000)"
fill="#000000" stroke="none">
<path d="M2417 4831 c-123 -254 -138 -280 -164 -285 -32 -7 -581 -86 -596 -86
-6 0 92 -100 218 -223 l229 -223 -52 -308 c-29 -170 -51 -310 -50 -312 2 -2
128 62 281 142 l278 146 277 -145 c152 -80 278 -144 280 -142 2 1 -21 141 -50
311 l-52 308 229 223 c126 123 224 223 217 223 -12 0 -530 75 -590 85 -32 6
-37 13 -169 286 -75 153 -139 279 -143 279 -4 0 -68 -126 -143 -279z"/>
<path d="M799 3814 c-93 -192 -140 -279 -154 -284 -11 -4 -161 -26 -334 -50
-291 -40 -313 -44 -295 -59 93 -76 464 -426 464 -439 0 -8 -23 -148 -51 -310
-27 -162 -49 -296 -47 -298 2 -1 128 63 281 143 l278 145 277 -145 c152 -80
278 -144 280 -142 2 1 -21 141 -50 311 l-52 308 229 223 c126 123 222 223 214
223 -28 1 -608 88 -616 93 -5 3 -69 130 -142 281 -74 152 -137 276 -141 276
-4 0 -67 -124 -141 -276z"/>
<path d="M4038 3811 c-124 -255 -139 -280 -165 -285 -32 -7 -581 -86 -596 -86
-6 0 93 -100 218 -223 l229 -223 -52 -308 c-29 -170 -51 -310 -50 -312 2 -1
128 63 281 143 l278 145 277 -145 c152 -80 278 -144 280 -142 2 1 -20 135 -47
297 -28 162 -51 302 -51 310 0 9 108 114 239 234 132 121 239 220 238 221 -1
1 -137 20 -302 43 -165 22 -313 43 -329 46 -26 6 -39 29 -164 285 -74 153
-138 279 -142 279 -4 0 -68 -126 -142 -279z"/>
<path d="M2405 2993 c-236 -50 -450 -228 -539 -449 -73 -179 -72 -395 1 -568
94 -225 310 -405 537 -448 67 -13 79 -28 22 -28 -18 0 -66 -9 -107 -19 -389
-100 -674 -382 -779 -771 -21 -78 -23 -112 -28 -398 l-4 -312 1052 0 1052 0
-4 313 c-4 276 -7 321 -25 387 -93 337 -306 593 -603 721 -92 40 -235 79 -286
79 -51 0 -49 17 4 24 128 18 284 101 391 209 138 140 205 289 218 487 27 425
-325 794 -754 789 -43 0 -109 -7 -148 -16z"/>
<path d="M912 2090 c-109 -29 -187 -74 -272 -160 -87 -86 -131 -163 -160 -276
-25 -98 -25 -190 0 -288 29 -113 73 -190 160 -276 85 -86 163 -131 272 -159
77 -20 77 -22 -17 -41 -137 -28 -267 -103 -375 -216 -150 -158 -210 -317 -210
-559 l0 -115 450 0 450 0 0 268 c0 279 10 390 49 527 11 38 18 72 15 76 -5 9
-87 29 -118 29 -14 0 -26 5 -26 10 0 6 11 10 25 10 13 0 53 9 88 21 l64 21 34
71 c52 109 140 238 234 342 85 93 85 94 85 148 0 73 -32 195 -72 270 -42 81
-164 203 -245 245 -132 69 -291 88 -431 52z"/>
<path d="M3912 2090 c-40 -11 -101 -34 -135 -52 -81 -42 -203 -164 -245 -245
-40 -75 -72 -197 -72 -270 0 -54 0 -55 85 -148 94 -104 182 -233 234 -342 l34
-71 64 -21 c35 -12 75 -21 88 -21 14 0 25 -4 25 -10 0 -5 -12 -10 -26 -10 -31
0 -113 -20 -118 -29 -3 -4 4 -38 15 -76 39 -137 49 -248 49 -527 l0 -268 450
0 450 0 0 115 c0 188 -36 319 -125 455 -106 161 -282 284 -460 320 -94 19 -94
21 -17 41 109 28 187 73 272 159 87 86 131 163 160 276 36 141 18 294 -52 427
-42 81 -164 203 -245 245 -132 69 -291 88 -431 52z"/>
</g>
</svg>
